<?xml version="1.0" encoding="UTF-8" standalone="no"?>
<!-- Created with Inkscape (http://www.inkscape.org/) -->

<svg
   xmlns:dc="http://purl.org/dc/elements/1.1/"
   xmlns:cc="http://creativecommons.org/ns#"
   xmlns:rdf="http://www.w3.org/1999/02/22-rdf-syntax-ns#"
   xmlns:svg="http://www.w3.org/2000/svg"
   xmlns="http://www.w3.org/2000/svg"
   xmlns:sodipodi="http://sodipodi.sourceforge.net/DTD/sodipodi-0.dtd"
   xmlns:inkscape="http://www.inkscape.org/namespaces/inkscape"
   width="2380"
   height="452"
   id="svg2"
   version="1.1"
   inkscape:version="0.48.5 r10040"
   sodipodi:docname="logo3.svg">
  <defs
     id="defs4" />
  <sodipodi:namedview
     id="base"
     pagecolor="#ffffff"
     bordercolor="#666666"
     borderopacity="1.0"
     inkscape:pageopacity="0.0"
     inkscape:pageshadow="2"
     inkscape:zoom="0.25317412"
     inkscape:cx="1953.9119"
     inkscape:cy="-3.3907462"
     inkscape:document-units="px"
     inkscape:current-layer="layer1"
     showgrid="false"
     inkscape:window-width="1366"
     inkscape:window-height="672"
     inkscape:window-x="0"
     inkscape:window-y="27"
     inkscape:window-maximized="1" />
  <metadata
     id="metadata7">
    <rdf:RDF>
      <cc:Work
         rdf:about="">
        <dc:format>image/svg+xml</dc:format>
        <dc:type
           rdf:resource="http://purl.org/dc/dcmitype/StillImage" />
        <dc:title></dc:title>
      </cc:Work>
    </rdf:RDF>
  </metadata>
  <g
     inkscape:label="Layer 1"
     inkscape:groupmode="layer"
     id="layer1"
     transform="translate(0,-600.36212)">
    <g
       id="layer1-6"
       inkscape:label="Layer 1"
       transform="matrix(3.543307,0,0,3.543307,-147.65494,301.22522)">
      <g
         transform="translate(19.620427,49.274868)"
         id="g21">
        <path
           inkscape:connector-curvature="0"
           id="path33"
           d="m 80.261443,162.55338 c -6.181069,-0.64807 -11.994811,-2.01692 -17.46034,-4.11104 -3.528716,-1.35204 -4.632367,-1.9977 -4.632367,-2.71004 0,-0.60506 1.971968,-5.05779 5.432017,-12.26556 1.921409,-4.00257 1.893686,-3.98508 4.563975,-2.87867 5.288899,2.19142 12.206599,3.60628 17.632237,3.60628 9.713398,0 20.406435,-3.68254 27.889025,-9.60461 6.03549,-4.77677 10.1139,-9.98711 13.40177,-17.12136 1.69429,-3.6764 1.87447,-3.9657 2.46979,-3.9657 0.43011,0 13.80324,4.78713 15.33124,5.48807 1.35287,0.6206 1.31445,1.19515 -0.3331,4.98182 -5.12559,11.78045 -12.79857,20.93268 -23.63589,28.19258 -7.26345,4.86578 -15.19098,8.01965 -24.254192,9.64923 -3.038866,0.5464 -4.749636,0.68254 -9.524999,0.75799 -3.201458,0.0506 -6.297083,0.042 -6.879166,-0.019 z M 48.506717,150.63029 c -3.382997,-2.27266 -9.497991,-8.02217 -12.332405,-11.59532 -7.310171,-9.21542 -11.864151,-19.67706 -13.610676,-31.26715 -0.47228,-3.13408 -0.392998,-4.15581 0.352497,-4.54273 0.252943,-0.13128 2.781615,-0.43809 5.619271,-0.6818 2.837656,-0.24371 6.25601,-0.55645 7.596342,-0.69499 1.340333,-0.13853 2.679786,-0.25187 2.976563,-0.25187 0.961219,0 1.525877,0.87866 1.723915,2.68259 0.479096,4.36413 2.057529,9.83688 4.027177,13.96305 3.114289,6.52405 7.280582,11.7038 13.375481,16.62909 1.350107,1.09103 2.05052,1.84202 2.05052,2.19861 0,0.29786 -0.869148,1.75486 -1.931442,3.23776 -1.062294,1.48291 -3.045891,4.30353 -4.407995,6.26807 -3.706826,5.34626 -3.61669,5.27907 -5.439248,4.05469 z m 8.572327,-24.8253 c -1.627418,-0.88441 -1.571749,0.052 -1.494316,-25.13794 l 0.07047,-22.923905 0.988301,-0.905652 0.988303,-0.905651 h 5.850041 c 6.402323,0 6.859642,0.09432 7.747909,1.598039 0.39152,0.662794 0.432737,2.890398 0.432737,23.388259 0,24.81756 0.04847,24.04167 -1.553517,24.87009 -1.119669,0.579 -11.969643,0.59296 -13.029924,0.0168 z m 22.339388,-0.11059 c -0.463655,-0.28696 -0.969671,-0.75841 -1.124479,-1.04767 -0.194103,-0.36268 -0.281469,-9.73345 -0.281469,-30.189799 0,-32.574959 -0.09093,-30.754015 1.57884,-31.617485 0.621406,-0.321342 1.88299,-0.401354 6.328296,-0.401354 3.053691,0 5.857518,0.116094 6.230726,0.257987 0.373208,0.141896 0.916297,0.647912 1.206859,1.124479 0.519748,0.852464 0.528315,1.349407 0.529289,30.694089 l 0.0011,29.827603 -0.77158,0.86407 -0.771578,0.86407 -6.041443,0.0729 c -5.623417,0.0678 -6.09977,0.0368 -6.88445,-0.44886 z m 22.343728,0.0941 c -1.56831,-0.85095 -1.52468,-0.28374 -1.52468,-19.82181 0,-19.960265 -0.0491,-19.390945 1.73558,-20.136621 0.7821,-0.326781 2.0383,-0.386543 6.75186,-0.321207 l 5.79098,0.08027 0.86444,0.864862 0.86443,0.86486 0.0732,18.130226 c 0.0805,19.92311 0.12387,19.33859 -1.50739,20.3022 -0.65913,0.38936 -1.5585,0.44994 -6.54416,0.4408 -4.59565,-0.008 -5.92842,-0.0911 -6.50429,-0.40358 z m 36.8399,-16.30383 c -4.32567,-0.77799 -7.43159,-1.46092 -7.65966,-1.68422 -0.32883,-0.32194 -0.33797,-0.83903 -0.064,-3.62053 0.92555,-9.395202 -0.49923,-17.511233 -4.47351,-25.482629 -2.74602,-5.50781 -5.90114,-9.660718 -10.34412,-13.615374 -6.99536,-6.226511 -15.91604,-10.275732 -24.782414,-11.24909 -2.411891,-0.264779 -2.803694,-0.72325 -2.566664,-3.003399 0.100213,-0.964037 0.288824,-3.002952 0.419134,-4.53092 0.963663,-11.299473 0.861343,-10.723467 1.953612,-10.997609 0.341722,-0.08577 1.975395,0.04106 3.630384,0.281839 13.824188,2.011233 26.250008,8.181589 35.962458,17.858073 10.14107,10.103517 16.22436,22.124197 18.41161,36.381657 0.94443,6.156151 0.48874,19.208422 -0.72152,20.666702 -0.46654,0.56214 -1.84062,0.42079 -9.76536,-1.0045 z M 33.562487,95.626466 C 21.025595,94.483953 22.029997,94.813118 22.311422,91.939225 23.682067,77.942279 30.379704,64.006772 40.692934,53.693539 51.006166,43.380307 64.941672,36.682669 78.938616,35.312024 c 2.883072,-0.282323 2.624397,-1.121303 3.73983,12.129598 0.541869,6.437166 0.772424,6.013357 -3.607628,6.63153 -10.119606,1.428215 -20.508377,7.046484 -27.157311,14.686733 -5.758177,6.616684 -9.66635,15.051167 -10.862854,23.443833 -0.240146,1.684451 -0.584525,3.105457 -0.817553,3.373438 -0.474684,0.545885 -1.165609,0.550995 -6.670613,0.04931 z"
           style="fill:#a5cdd0;stroke-width:0.26458332" />
        <path
           inkscape:connector-curvature="0"
           id="path31"
           d="m 79.599984,162.28695 c -2.393923,-0.28544 -6.465307,-1.00255 -8.863541,-1.56118 -4.766418,-1.11025 -12.084607,-3.93868 -12.414387,-4.79807 -0.198059,-0.51614 6.721427,-15.40361 7.308919,-15.72534 0.32613,-0.1786 1.192318,0.0486 3.13246,0.82151 8.771207,3.49444 17.773125,4.23021 26.955327,2.20319 4.071903,-0.8989 6.922468,-1.9361 10.868718,-3.95468 4.47791,-2.29052 7.74849,-4.6786 11.37708,-8.3072 3.86964,-3.86964 6.10505,-7.02161 8.63167,-12.17084 1.10676,-2.25557 2.10011,-4.27963 2.20744,-4.49791 0.10733,-0.21828 0.42803,-0.43193 0.71266,-0.47477 0.28464,-0.0428 3.66576,1.07069 7.51361,2.47452 3.84784,1.40383 7.32422,2.67117 7.72528,2.81631 1.13225,0.40976 1.14457,1.19149 0.0602,3.81523 -7.41126,17.93156 -22.27871,31.35357 -40.9864,37.00162 -5.789314,1.74786 -9.730629,2.30377 -16.952955,2.39118 -3.492499,0.0423 -6.766718,0.0272 -7.276041,-0.0336 z M 47.188528,149.28668 c -2.78453,-2.08536 -8.9511,-8.11985 -11.016841,-10.78088 -7.410742,-9.5463 -11.831675,-19.90764 -13.321164,-31.22083 -0.523515,-3.97628 -0.54345,-3.95017 3.226967,-4.22609 1.424613,-0.10425 5.030987,-0.40732 8.014164,-0.67348 6.398402,-0.57088 6.184341,-0.63927 6.459818,2.06405 1.161499,11.39806 7.833467,23.13814 17.335297,30.5034 1.186363,0.91959 2.13405,1.85432 2.13405,2.10487 0,0.24787 -0.219951,0.73463 -0.488778,1.08167 -0.268827,0.34705 -2.368942,3.3099 -4.666919,6.58412 -2.297978,3.27422 -4.310451,6.0406 -4.472159,6.14751 -0.53017,0.35052 -0.797065,0.21856 -3.204435,-1.58434 z m 11.773958,-23.37033 c -1.87478,-0.19846 -2.315903,-0.40734 -2.787912,-1.3201 -0.330991,-0.64006 -0.387088,-4.07096 -0.387088,-23.6746 V 77.995592 l 0.899583,-0.899583 0.899583,-0.899583 h 5.834843 c 3.96027,0 6.057725,0.101552 6.528591,0.316095 1.498917,0.68295 1.447815,-0.183746 1.447815,24.554739 0,24.56148 0.04191,23.80839 -1.36649,24.55613 -0.673836,0.35775 -8.500073,0.56488 -11.068925,0.29296 z m 44.029034,0.0743 c -0.27779,-0.0439 -0.78313,-0.21826 -1.12296,-0.38752 -1.38895,-0.69175 -1.36649,-0.36723 -1.36649,-19.74773 0,-13.38607 0.0809,-18.169967 0.31609,-18.686108 0.60217,-1.321618 1.26498,-1.447816 7.60409,-1.447816 h 5.8298 l 0.86407,0.771959 0.86407,0.771959 0.0714,18.408456 0.0714,18.40845 -0.86518,0.93399 -0.86518,0.93399 -5.44805,0.0601 c -2.99643,0.033 -5.67533,0.0242 -5.95312,-0.0197 z m -23.024262,-0.30447 c -0.307324,-0.12821 -0.81334,-0.55674 -1.124479,-0.9523 L 78.277068,124.0147 V 94.288878 64.563106 l 0.772046,-0.864068 0.772046,-0.864071 h 6.128824 6.128824 l 0.772046,0.864071 0.772046,0.864068 v 29.757279 29.757275 l -0.771557,0.86407 -0.771554,0.86407 -5.776883,0.0567 c -3.177283,0.0312 -6.028327,-0.0482 -6.335648,-0.17639 z m 58.973682,-16.50956 c -4.10648,-0.74934 -7.60659,-1.50498 -7.77801,-1.67919 -0.2382,-0.24209 -0.24012,-0.94599 -0.008,-2.98605 1.26387,-11.114711 -1.28686,-21.867553 -7.35244,-30.994888 -5.76992,-8.682432 -14.43606,-15.155344 -24.514468,-18.310334 -2.324359,-0.727625 -7.352881,-1.76385 -8.559508,-1.76385 -0.413054,0 -0.995482,-0.20836 -1.294284,-0.463021 l -0.543274,-0.463021 0.717836,-8.101821 c 0.497004,-5.609411 0.830453,-8.237516 1.083908,-8.54291 0.39679,-0.478103 0.484486,-0.473876 5.3116,0.256027 18.41252,2.78414 35.33603,14.459078 44.85049,30.940788 6.31578,10.940712 9.28451,23.640072 8.37369,35.82021 -0.34771,4.64977 -0.67952,6.7987 -1.13438,7.34678 -0.42057,0.50675 -0.83948,0.4583 -9.15301,-1.05872 z M 34.488529,95.494161 c -1.164167,-0.115128 -4.182331,-0.391805 -6.707032,-0.614836 -2.751778,-0.243094 -4.752613,-0.540168 -4.995446,-0.741701 -0.813705,-0.675315 0.195498,-7.395584 2.040967,-13.590771 5.404365,-18.142295 18.741431,-32.979992 36.369228,-40.461346 7.004563,-2.972782 18.910709,-5.540001 19.940205,-4.299534 0.320109,0.385709 0.663189,3.50809 1.424692,12.966189 0.27251,3.38465 0.262284,3.961297 -0.07626,4.299839 -0.225073,0.225072 -1.34112,0.508064 -2.630125,0.666912 -4.357396,0.53697 -10.189246,2.29945 -14.080174,4.255255 -13.695843,6.884319 -22.695972,19.295495 -24.956726,34.415325 -0.222398,1.487389 -0.531667,2.85774 -0.687263,3.045224 -0.314318,0.37873 -2.211395,0.398717 -5.642067,0.05944 z"
           style="fill:#99a1a2;stroke-width:0.26458332" />
        <path
           inkscape:connector-curvature="0"
           id="path29"
           d="m 77.483318,161.75476 c -1.527969,-0.20726 -4.140716,-0.68243 -5.806107,-1.05593 -4.698703,-1.0538 -12.187996,-3.77705 -12.966244,-4.71479 -0.238847,-0.28779 0.415338,-1.91834 3.048926,-7.59941 1.844162,-3.97814 3.554645,-7.44594 3.801073,-7.7062 0.428879,-0.45296 0.57753,-0.42269 3.473225,0.70727 4.892561,1.90919 8.554055,2.71498 13.873085,3.05308 18.639444,1.18481 35.824154,-8.80499 43.991574,-25.57315 0.83421,-1.71269 1.65524,-3.50095 1.8245,-3.97389 0.21144,-0.59079 0.47766,-0.8599 0.85067,-0.8599 0.77987,0 15.17025,5.25077 15.63175,5.70373 0.33808,0.33181 0.32226,0.56792 -0.12746,1.90162 -0.82152,2.43634 -4.33678,9.22886 -6.26513,12.10611 -6.44198,9.6119 -14.79682,16.97133 -24.94966,21.97712 -6.46055,3.18533 -14.106528,5.42821 -21.090089,6.18658 -3.549872,0.3855 -11.941703,0.30194 -15.290113,-0.15224 z m -30.29479,-12.46808 c -2.78453,-2.08536 -8.9511,-8.11985 -11.016841,-10.78088 -7.410742,-9.5463 -11.831675,-19.90764 -13.321164,-31.22083 -0.523515,-3.97628 -0.54345,-3.95017 3.226967,-4.22609 1.424613,-0.10425 5.030987,-0.40732 8.014164,-0.67348 6.398402,-0.57088 6.184341,-0.63927 6.459818,2.06405 1.161499,11.39806 7.833467,23.13814 17.335297,30.5034 1.186363,0.91959 2.13405,1.85432 2.13405,2.10487 0,0.24787 -0.219951,0.73463 -0.488778,1.08167 -0.268827,0.34705 -2.368942,3.3099 -4.666919,6.58412 -2.297978,3.27422 -4.310451,6.0406 -4.472159,6.14751 -0.53017,0.35052 -0.797065,0.21856 -3.204435,-1.58434 z m 10.798415,-23.62863 c -0.463785,-0.14059 -1.088863,-0.56788 -1.389062,-0.94951 -0.541854,-0.68886 -0.545812,-0.86067 -0.545812,-23.69731 V 78.007803 l 0.773398,-0.773396 0.773396,-0.773398 h 5.993831 5.99383 l 0.773396,0.773398 0.773398,0.773396 v 23.034927 23.03493 l -0.771718,0.86407 -0.771718,0.86407 -5.379844,0.0539 c -2.958915,0.0297 -5.759307,-0.0611 -6.223095,-0.20169 z m 21.980315,0.0281 c -0.307324,-0.12821 -0.81334,-0.55674 -1.124479,-0.9523 l -0.565711,-0.71918 V 94.288878 64.563106 l 0.772046,-0.864068 0.772046,-0.864071 h 6.128824 6.128824 l 0.772046,0.864071 0.772046,0.864068 v 29.757279 29.757275 l -0.771557,0.86407 -0.771554,0.86407 -5.776883,0.0567 c -3.177283,0.0312 -6.028327,-0.0482 -6.335648,-0.17639 z m 22.726652,0.0664 c -0.32245,-0.0624 -0.888,-0.47205 -1.25677,-0.91031 l -0.67049,-0.79683 v -18.2563 -18.256307 l 0.7734,-0.773395 0.77339,-0.773399 h 5.95873 c 5.91726,0 5.96388,0.0044 6.70108,0.638464 l 0.74236,0.638466 0.0715,18.317511 c 0.0641,16.41358 0.0276,18.38458 -0.35131,18.9628 -0.79246,1.20944 -1.78935,1.39794 -7.18617,1.35881 -2.73319,-0.0198 -5.23327,-0.0871 -5.55572,-0.14951 z m 36.24703,-16.57598 c -4.10648,-0.74934 -7.60659,-1.50498 -7.77801,-1.67919 -0.2382,-0.24209 -0.24012,-0.94599 -0.008,-2.98605 1.26387,-11.114711 -1.28686,-21.867553 -7.35244,-30.994888 -5.76992,-8.682432 -14.43606,-15.155344 -24.514468,-18.310334 -2.324359,-0.727625 -7.352881,-1.76385 -8.559508,-1.76385 -0.413054,0 -0.995482,-0.20836 -1.294284,-0.463021 l -0.543274,-0.463021 0.717836,-8.101821 c 0.497004,-5.609411 0.830453,-8.237516 1.083908,-8.54291 0.39679,-0.478103 0.484486,-0.473876 5.3116,0.256027 18.41252,2.78414 35.33603,14.459078 44.85049,30.940788 6.31578,10.940712 9.28451,23.640072 8.37369,35.82021 -0.34771,4.64977 -0.67952,6.7987 -1.13438,7.34678 -0.42057,0.50675 -0.83948,0.4583 -9.15301,-1.05872 z M 34.223946,95.225114 c -1.309688,-0.123044 -4.307779,-0.394591 -6.662425,-0.60344 -2.354646,-0.208849 -4.424802,-0.468493 -4.600345,-0.576985 -0.741182,-0.458076 0.402818,-7.698415 2.135228,-13.513798 6.169289,-20.709166 22.931081,-37.109999 43.76132,-42.818935 3.920702,-1.074544 9.516761,-2.059026 11.060059,-1.945729 0.986139,0.0724 1.12653,0.167643 1.28969,0.874988 0.275926,1.196192 1.139743,11.870543 1.156214,14.287501 l 0.01442,2.116667 -1.322916,0.219935 c -7.014781,1.166209 -11.477997,2.497143 -15.773875,4.703786 -9.471763,4.865312 -16.534912,12.17892 -20.990929,21.735255 -1.889482,4.052171 -2.930276,7.762579 -4.025675,14.351442 l -0.219935,1.322917 -1.719792,0.03505 c -0.945885,0.01929 -2.791354,-0.06562 -4.101041,-0.188659 z"
           style="fill:#61a3aa;stroke-width:0.26458332" />
        <path
           inkscape:connector-curvature="0"
           id="path27"
           d="m 78.409359,161.8781 c -6.495017,-0.73245 -18.36137,-4.28304 -19.698392,-5.89406 -0.238847,-0.28779 0.415338,-1.91834 3.048926,-7.59941 1.844162,-3.97814 3.554645,-7.44594 3.801073,-7.7062 0.428879,-0.45296 0.57753,-0.42269 3.473225,0.70727 4.892561,1.90919 8.554055,2.71498 13.873085,3.05308 16.448594,1.04555 31.917394,-6.62601 41.099804,-20.38296 1.30136,-1.94967 4.14146,-7.43938 4.74611,-9.17387 0.20067,-0.57565 0.46751,-0.85011 0.8265,-0.85011 0.75545,0 15.16147,5.26606 15.62608,5.71205 0.33784,0.32429 0.32193,0.56055 -0.12746,1.8933 -0.82152,2.43634 -4.33678,9.22886 -6.26513,12.10611 -6.44198,9.6119 -14.79682,16.97133 -24.94966,21.97712 -6.46055,3.18533 -14.106528,5.42821 -21.090089,6.18658 -3.024586,0.32846 -11.343636,0.31172 -14.364072,-0.0289 z M 47.106796,148.83687 c -10.611302,-7.99339 -18.928514,-20.55662 -22.411281,-33.85248 -1.212862,-4.63023 -2.105909,-10.37641 -1.711773,-11.01414 0.14647,-0.23699 2.632657,-0.55161 8.238531,-1.04256 4.415816,-0.38673 8.178611,-0.65275 8.361769,-0.59115 0.366925,0.12341 0.347884,0.0434 0.981701,4.12528 1.697329,10.93104 7.704931,21.11628 16.743097,28.38609 1.346068,1.08271 2.447396,2.06292 2.447396,2.17825 0,0.35286 -9.371954,13.60602 -9.695294,13.71041 -0.16642,0.0537 -1.495787,-0.80113 -2.954146,-1.8997 z m 11.48807,-23.16242 c -0.957694,-0.1227 -1.455865,-0.35431 -1.918229,-0.89184 L 56.052069,124.0565 V 101.03215 78.007803 l 0.773398,-0.773396 0.773396,-0.773398 h 5.993831 5.99383 l 0.773396,0.773398 0.773398,0.773396 v 23.034927 23.03493 l -0.732507,0.81982 -0.732509,0.81982 -4.889886,0.0615 c -2.689439,0.0338 -5.472036,-0.0131 -6.18355,-0.1043 z m 44.099044,0.0491 c -0.32245,-0.0464 -0.888,-0.44301 -1.25677,-0.88127 l -0.67049,-0.79683 v -18.2563 -18.256307 l 0.7734,-0.773395 0.77339,-0.773399 h 5.95873 c 5.91726,0 5.96388,0.0044 6.70108,0.638464 l 0.74236,0.638466 0.0715,18.317511 c 0.0774,19.83008 0.1268,19.08515 -1.3167,19.85769 -0.53573,0.28671 -10.14964,0.51968 -11.7765,0.28537 z m -22.907678,-0.4723 c -0.406886,-0.22062 -0.853371,-0.69985 -0.992187,-1.06497 -0.154607,-0.40665 -0.252394,-11.9895 -0.252394,-29.896219 0,-31.763008 -0.06756,-30.316219 1.447816,-31.006668 0.957834,-0.436419 10.9632,-0.436419 11.921034,0 1.515382,0.690452 1.447816,-0.756766 1.447816,31.011444 0,22.104223 -0.07712,29.406403 -0.316095,29.930903 -0.595858,1.30776 -1.296808,1.44875 -7.145245,1.43722 -4.282596,-0.008 -5.520861,-0.0919 -6.110745,-0.41171 z m 59.771008,-16.24529 c -3.91305,-0.70691 -7.40534,-1.35826 -7.76066,-1.44744 -0.64013,-0.16066 -0.64403,-0.18079 -0.426,-2.2022 0.12101,-1.12203 0.20895,-4.42131 0.19541,-7.331728 -0.0271,-5.818241 -0.39919,-8.29862 -1.99985,-13.329606 -5.12451,-16.106747 -19.56987,-28.5611 -36.104932,-31.128597 -1.584558,-0.246044 -3.148907,-0.49595 -3.476329,-0.555346 -0.528587,-0.09589 -0.594717,-0.263121 -0.59001,-1.492015 0.01215,-3.170275 1.274482,-15.349052 1.612593,-15.558016 0.187857,-0.116102 0.644821,-0.164608 1.015476,-0.10779 0.370658,0.05682 1.685952,0.241285 2.922879,0.409927 19.959933,2.721327 38.092213,15.73451 47.253853,33.913156 4.193,8.319795 6.30101,16.419852 6.84866,26.316055 0.17329,3.131371 -0.21236,9.44739 -0.73977,12.11557 -0.27878,1.41037 -0.38759,1.59284 -0.97525,1.63541 -0.3638,0.0263 -3.86304,-0.53047 -7.77607,-1.23738 z M 34.223946,95.225114 c -1.309688,-0.123044 -4.307779,-0.394591 -6.662425,-0.60344 -2.354646,-0.208849 -4.424802,-0.468493 -4.600345,-0.576985 -0.741182,-0.458076 0.402818,-7.698415 2.135228,-13.513798 6.16614,-20.698596 22.941714,-37.112913 43.76132,-42.818935 3.920702,-1.074544 9.516761,-2.059026 11.060059,-1.945729 0.986139,0.0724 1.12653,0.167643 1.28969,0.874988 0.275926,1.196192 1.139743,11.870543 1.156214,14.287501 l 0.01442,2.116667 -1.322916,0.219935 c -6.861519,1.140727 -11.290913,2.441546 -15.505937,4.553765 -12.851354,6.440025 -21.94921,18.367495 -24.551223,32.187143 -0.282361,1.499661 -0.612355,3.321971 -0.733319,4.049575 l -0.219935,1.322917 -1.719792,0.03505 c -0.945885,0.01929 -2.791354,-0.06562 -4.101041,-0.188659 z"
           style="fill:#1b8b96;stroke-width:0.26458332" />
        <path
           inkscape:connector-curvature="0"
           id="path25"
           d="m 78.409359,161.8781 c -6.495017,-0.73245 -18.36137,-4.28304 -19.698392,-5.89406 -0.238847,-0.28779 0.415338,-1.91834 3.048926,-7.59941 1.844162,-3.97814 3.554645,-7.44594 3.801073,-7.7062 0.428879,-0.45296 0.57753,-0.42269 3.473225,0.70727 4.892561,1.90919 8.554055,2.71498 13.873085,3.05308 16.448594,1.04555 31.917394,-6.62601 41.099804,-20.38296 1.30136,-1.94967 4.14146,-7.43938 4.74611,-9.17387 0.20067,-0.57565 0.46751,-0.85011 0.8265,-0.85011 0.75545,0 15.16147,5.26606 15.62608,5.71205 0.33784,0.32429 0.32193,0.56055 -0.12746,1.8933 -0.82152,2.43634 -4.33678,9.22886 -6.26513,12.10611 -6.44198,9.6119 -14.79682,16.97133 -24.94966,21.97712 -6.46055,3.18533 -14.106528,5.42821 -21.090089,6.18658 -3.024586,0.32846 -11.343636,0.31172 -14.364072,-0.0289 z M 58.594866,125.67445 c -0.957694,-0.1227 -1.455865,-0.35431 -1.918229,-0.89184 L 56.052069,124.0565 V 101.03215 78.007803 l 0.773398,-0.773396 0.773396,-0.773398 h 5.993831 5.99383 l 0.773396,0.773398 0.773398,0.773396 v 23.034927 23.03493 l -0.732507,0.81982 -0.732509,0.81982 -4.889886,0.0615 c -2.689439,0.0338 -5.472036,-0.0131 -6.18355,-0.1043 z m 44.099044,0.0491 c -0.32245,-0.0464 -0.888,-0.44301 -1.25677,-0.88127 l -0.67049,-0.79683 v -18.2563 -18.256307 l 0.7734,-0.773395 0.77339,-0.773399 h 5.95873 c 5.91726,0 5.96388,0.0044 6.70108,0.638464 l 0.74236,0.638466 0.0715,18.317511 c 0.0774,19.83008 0.1268,19.08515 -1.3167,19.85769 -0.53573,0.28671 -10.14964,0.51968 -11.7765,0.28537 z M 34.223946,95.225114 c -1.309688,-0.123044 -4.307779,-0.394591 -6.662425,-0.60344 -2.354646,-0.208849 -4.424802,-0.468493 -4.600345,-0.576985 -0.741182,-0.458076 0.402818,-7.698415 2.135228,-13.513798 6.16614,-20.698596 22.941714,-37.112913 43.76132,-42.818935 3.920702,-1.074544 9.516761,-2.059026 11.060059,-1.945729 0.986139,0.0724 1.12653,0.167643 1.28969,0.874988 0.275926,1.196192 1.139743,11.870543 1.156214,14.287501 l 0.01442,2.116667 -1.322916,0.219935 c -6.861519,1.140727 -11.290913,2.441546 -15.505937,4.553765 -12.851354,6.440025 -21.94921,18.367495 -24.551223,32.187143 -0.282361,1.499661 -0.612355,3.321971 -0.733319,4.049575 l -0.219935,1.322917 -1.719792,0.03505 c -0.945885,0.01929 -2.791354,-0.06562 -4.101041,-0.188659 z"
           style="fill:#556364;stroke-width:0.26458332" />
        <path
           inkscape:connector-curvature="0"
           id="path23"
           d="m 78.080689,161.50433 c -5.526982,-0.66957 -11.484117,-2.26097 -16.811476,-4.49104 -1.570395,-0.65738 -2.307881,-1.10497 -2.310344,-1.40218 -0.0021,-0.24011 1.507011,-3.68101 3.353334,-7.64645 3.643206,-7.8247 3.45898,-7.58989 5.323885,-6.78572 0.541028,0.2333 2.156142,0.82464 3.589138,1.31408 15.285664,5.22092 32.179064,1.87975 44.760674,-8.85275 2.71306,-2.31431 5.92741,-5.92819 7.96262,-8.95232 1.5984,-2.37509 3.99387,-6.86578 4.74541,-8.89606 0.26114,-0.70546 0.62334,-1.33967 0.8049,-1.40933 0.30325,-0.11637 14.59932,4.94237 15.44602,5.46566 0.47418,0.29306 -0.42304,2.68347 -2.78232,7.41279 -9.50108,19.04551 -28.57006,32.20348 -49.824433,34.37985 -3.658272,0.37459 -10.585929,0.30826 -14.257408,-0.13653 z M 57.435565,125.23184 c -0.184963,-0.0744 -0.512384,-0.47582 -0.727604,-0.89201 -0.336365,-0.65046 -0.391309,-3.91882 -0.391309,-23.27682 0,-16.613851 0.08073,-22.671691 0.307801,-23.098041 0.628819,-1.180652 0.866344,-1.222147 7.046412,-1.230963 l 5.899007,-0.0084 0.64943,0.649433 0.649433,0.649431 v 23.0428 23.0428 l -0.649433,0.64943 -0.64943,0.64944 -5.899007,-0.0209 c -3.244453,-0.0115 -6.050338,-0.0818 -6.2353,-0.1562 z m 44.245105,-0.47235 -0.64944,-0.64943 v -17.99124 c 0,-12.621898 0.0877,-18.183659 0.29376,-18.635978 0.50419,-1.106575 1.23314,-1.232249 7.14738,-1.232249 h 5.56415 l 0.7734,0.773398 0.7734,0.773396 v 17.892873 c 0,18.93741 -0.01,19.09664 -1.20248,19.55431 -0.23557,0.0904 -3.04335,0.16436 -6.23952,0.16436 H 102.3301 z M 30.430055,94.573453 c -3.68737,-0.336282 -6.88747,-0.681709 -7.111334,-0.767614 -0.338874,-0.13004 -0.376222,-0.476599 -0.223053,-2.06978 0.609151,-6.336096 2.966821,-14.366614 6.076994,-20.699009 7.965235,-16.217429 22.387838,-28.191331 39.825366,-33.063733 4.684548,-1.308958 11.423297,-2.326491 11.763374,-1.776237 0.24512,0.396615 1.574604,15.834772 1.402305,16.283778 -0.09308,0.242545 -0.955024,0.485046 -2.477704,0.697078 -20.362949,2.835522 -36.382172,18.644924 -39.386665,38.870779 -0.22512,1.515477 -0.470814,2.854931 -0.545987,2.976562 -0.194562,0.314809 -1.736516,0.240083 -9.323296,-0.451824 z"
           style="fill:#364748;stroke-width:0.26458332" />
      </g>
    </g>
    <text
       xml:space="preserve"
       style="font-size:46.8993454px;font-style:normal;font-weight:normal;line-height:125%;letter-spacing:0px;word-spacing:0px;fill:#2f4f4f;fill-opacity:1;stroke:none;font-family:Sans"
       x="483.8551"
       y="1032.3961"
       id="text3024"
       sodipodi:linespacing="125%"
       transform="scale(1.0902266,0.91724051)"><tspan
         sodipodi:role="line"
         id="tspan3026"
         x="483.8551"
         y="1032.3961"
         style="font-size:351.74511719px;font-style:normal;font-variant:normal;font-weight:bold;font-stretch:condensed;fill:#2f4f4f;font-family:Liberation Sans Narrow;-inkscape-font-specification:Liberation Sans Narrow Bold Condensed">Material<tspan
   style="font-style:normal;font-variant:normal;font-weight:bold;font-stretch:condensed;fill:#008080;font-family:Liberation Sans Narrow;-inkscape-font-specification:Liberation Sans Narrow Bold Condensed"
   id="tspan3044">FE</tspan></tspan></text>
    <flowRoot
       xml:space="preserve"
       id="flowRoot3028"
       style="font-size:40px;font-style:normal;font-weight:normal;line-height:125%;letter-spacing:0px;word-spacing:0px;fill:#000000;fill-opacity:1;stroke:none;font-family:Sans"><flowRegion
         id="flowRegion3030"><rect
           id="rect3032"
           width="1165.7142"
           height="85.714287"
           x="840"
           y="120.57143" /></flowRegion><flowPara
         id="flowPara3034"></flowPara></flowRoot>    <flowRoot
       xml:space="preserve"
       id="flowRoot3036"
       style="font-size:40px;font-style:normal;font-weight:normal;line-height:125%;letter-spacing:0px;word-spacing:0px;fill:#000000;fill-opacity:1;stroke:none;font-family:Sans"><flowRegion
         id="flowRegion3038"><rect
           id="rect3040"
           width="1800"
           height="51.42857"
           x="262.85715"
           y="194.85715" /></flowRegion><flowPara
         id="flowPara3042"></flowPara></flowRoot>  </g>
</svg>
